<svg width="66" height="66" fill="none" xmlns="http://www.w3.org/2000/svg"><g clip-path="url(#clip0)"><path d="M17.592 46.56a5.113 5.113 0 100-10.226 5.113 5.113 0 000 10.225z" fill="#C52D5D"/><path d="M48.151 30.132a5.113 5.113 0 100-10.226 5.113 5.113 0 000 10.226z" fill="#A00043"/><path fill-rule="evenodd" clip-rule="evenodd" d="M58.01 15.3c-4.144 4.145-1.38 8.41-1.102 9.234a26.393 26.393 0 011.377 8.445c0 14.635-11.882 26.517-26.517 26.517a26.38 26.38 0 01-17.337-6.466c-1.847-1.6-4.363-5.809-.518-8.323l2.195-1.442c3.345 5.096 9.113 8.46 15.66 8.46 10.347 0 18.747-8.4 18.747-18.746 0-3.8-1.133-7.336-3.087-10.286L58.01 15.3z" fill="#A00043"/><path fill-rule="evenodd" clip-rule="evenodd" d="M45.302 24.09c1.367-.91 3.369.691 3.833 1.826a18.619 18.619 0 011.38 7.062c0 10.347-8.4 18.747-18.746 18.747a18.65 18.65 0 01-12.382-4.68c-1.253-1.107-3.18-3.819-5.119-2.572L45.302 24.09z" fill="#F48898"/><path fill-rule="evenodd" clip-rule="evenodd" d="M37.478 29.227s3.318-2.27 4.298-.271c.545 1.11.85 2.578.85 4.022 0 5.62-4.276 10.247-9.75 10.803l-1.11.057c-2.319 0-4.47-.73-6.233-1.97-1.12-.79-3.12-2.642-6.14-.762l18.085-11.879z" fill="#A00043"/><path fill-rule="evenodd" clip-rule="evenodd" d="M22.697 38.937L4.794 50.697c5.088-5.089.457-12.345.457-17.719 0-14.635 11.882-26.517 26.518-26.517a26.4 26.4 0 0118.737 7.77c1.275 1.277 3.926 3.877 1.002 5.782l-4.08 2.68c-3.344-5.097-9.112-8.461-15.66-8.461-10.346 0-18.746 8.4-18.746 18.746 0 3.8 1.133 7.336 3.087 10.286l6.588-4.327z" fill="#C52D5D"/><path fill-rule="evenodd" clip-rule="evenodd" d="M50.295 20.808L18.803 41.494c-2.48 1.584-4.047-.524-4.532-1.779a18.635 18.635 0 01-1.252-6.737c0-10.346 8.4-18.746 18.747-18.746 4.91 0 9.383 1.892 12.723 4.988 1.113 1.032 2.834 3.54 5.806 1.588z" fill="#F9C1C3"/><path fill-rule="evenodd" clip-rule="evenodd" d="M33.165 22.209c1.936.249 3.712 1.009 5.189 2.14.97.743 2.99 2.31 5.971.38L25.038 37.398c-1.802 1.204-3.148.225-3.552-.917a10.492 10.492 0 01-.579-3.503c0-5.993 4.866-10.859 10.86-10.859l1.398.09z" fill="#C52D5D"/><path d="M1.083 52.808a1.083 1.083 0 100-2.166 1.083 1.083 0 000 2.166z" fill="#C52D5D"/><path fill-rule="evenodd" clip-rule="evenodd" d="M58.286 14.758s4.164-2.886 4.655-3.234c.49-.348 2.413-1.07 2.687.042.27 1.101-1.995 1.257-7.342 3.192z" fill="#C52D5D"/></g><defs><clipPath id="clip0"><path fill="#fff" d="M0 0h66v66H0z"/></clipPath></defs></svg>