<svg width="1015" height="286" fill="none" xmlns="http://www.w3.org/2000/svg"><path d="M9.608 151.326c10.6 64.923 20.444 83.9 25.365 41.95 4.922-41.95 14.387-61.927-7.95-80.904C4.686 93.394-3.643 88.4-14.622 140.838c-6.138 29.319-6.833 61.136-5.458 86.897m0 0c1.085 20.312 3.455 36.859 5.458 45.446 4.543 19.477 85.94-1.998 86.697-37.456.118-5.53.936-11.231 2.075-16.979m-94.23 8.989c-22.873-33.96-5.52-19.477 22.873-76.409 28.395-56.933 16.28-27.468 57.924-10.488 35.149 14.331 19.596 46.806 13.433 77.908M-36.2 235.725c-.384-2.668-.76-5.332-1.128-7.99m0 0c-7.61-55.036-11.07-107.186 17.25-134.34C9.607 64.927 28.158 28.47 44.437 32.965c16.28 4.495 87.346-98.383 58.681 42.95-28.665 141.331-34.451 145.327-42.402 171.296-7.95 25.969 20.066 53.436 24.23 12.485 4.164-40.951 53.759-132.842-28.394-107.373-82.154 25.47-128.705 29.965-93.882 75.411zm99.841 45.446c-8.532-17.01-19.822-53.311-27.539-114.864-13.023-103.876.884-65.256 9.465-32.961C43.006 135.994 12 238 18 244.5c6 6.5 9.023-16.765-15.207-132.128-24.23-115.363-17.415 28.466 24.23 65.422 47.508-15.481 33.694 49.941 45.052 88.895 5.974 20.488-.097 25.365-9.563 6.492zm0 0c7.83-13.484 27.008-75.91 22.435-95.387-4.574-19.477-30.8-73.912-12.872-7.99 17.928 65.921 71.553 115.862 81.018 57.931 1.114-6.819 2.757-14.177 4.665-21.768M74.15 218.746c-38.434 2.497-17.597-40.952 59.256-93.39 56.807-38.76 45.562 4.065 32.008 52.438m0 0c-.964-19.477-23.3-103.377-32.008-36.956-4.424 33.744 8.74 54.34 24.352 65.129m7.656-28.173c-2.624 9.367-5.335 18.942-7.656 28.173m0 0c15.119 10.449 32.533 11.7 38.494 6.786 12.114-9.988 93.161-31.463 29.529-42.949-63.631-11.487-99.701 23.385-68.023 36.163zM266.586 172c-9.464-19.477 19.769-68.118-7.868-31.162-44.294 52.438-83.289 89.394-62.466 36.956 20.822-52.438 12.493-122.854 44.294-65.422C272.348 169.804 266 196.5 286.5 190c8.3-2.632 16.892 38.234 22.192 3.276 5.3-34.959 10.979-51.939 27.637-59.929 16.658-7.991 34.83-17.479 41.644 17.979 6.815 35.458-6.814 41.95 18.173 41.95 24.986 0 63.224-17.479 85.56-34.959 22.337-17.479 35.966-27.966 56.788-17.479 20.823 10.488 32.18 36.956 51.11 36.956 18.929 0 33.01-28.965 47.396-36.956 14.386-7.99 49.806 25.662 83.5 25.662S734.692 146 754 146s48.792 14.5 57.5 14.5c8.708 0 35.235-7.5 50-7.5s29.081 5.317 51.417 5.317H981.82L1014 158" stroke="#000" stroke-width="2"/></svg>